<svg xmlns="http://www.w3.org/2000/svg" viewBox="0 0 400 400" width="400" height="400">
  <defs>
    <radialGradient id="bgG" cx="50%" cy="38%" r="62%">
      <stop offset="0%" stop-color="#0e1b3e"/>
      <stop offset="65%" stop-color="#080f22"/>
      <stop offset="100%" stop-color="#040810"/>
    </radialGradient>
    <linearGradient id="goldG" x1="0%" y1="0%" x2="100%" y2="100%">
      <stop offset="0%" stop-color="#f5e492"/>
      <stop offset="30%" stop-color="#d4a83c"/>
      <stop offset="65%" stop-color="#c9a84c"/>
      <stop offset="100%" stop-color="#8a6820"/>
    </linearGradient>
    <linearGradient id="cvG" x1="0%" y1="0%" x2="0%" y2="100%">
      <stop offset="0%" stop-color="#f8eb96"/>
      <stop offset="25%" stop-color="#e2c254"/>
      <stop offset="60%" stop-color="#c9a84c"/>
      <stop offset="100%" stop-color="#7a5e1c"/>
    </linearGradient>
    <linearGradient id="cvGH" x1="0%" y1="0%" x2="100%" y2="0%">
      <stop offset="0%" stop-color="#f5e492"/>
      <stop offset="50%" stop-color="#c9a84c"/>
      <stop offset="100%" stop-color="#8a6820"/>
    </linearGradient>
    <clipPath id="clip">
      <circle cx="200" cy="200" r="192"/>
    </clipPath>
  </defs>

  <!-- Outer black edge -->
  <circle cx="200" cy="200" r="200" fill="#02050c"/>
  <!-- Main background -->
  <circle cx="200" cy="200" r="196" fill="url(#bgG)"/>

  <!-- Circuit board texture -->
  <g clip-path="url(#clip)" opacity="0.13" fill="none" stroke="#05d8c0" stroke-width="0.65">
    <line x1="40" y1="80" x2="360" y2="80"/>
    <line x1="40" y1="120" x2="360" y2="120"/>
    <line x1="40" y1="160" x2="360" y2="160"/>
    <line x1="40" y1="200" x2="360" y2="200"/>
    <line x1="40" y1="240" x2="360" y2="240"/>
    <line x1="40" y1="280" x2="360" y2="280"/>
    <line x1="40" y1="320" x2="360" y2="320"/>
    <line x1="80" y1="40" x2="80" y2="360"/>
    <line x1="120" y1="40" x2="120" y2="360"/>
    <line x1="160" y1="40" x2="160" y2="360"/>
    <line x1="200" y1="40" x2="200" y2="360"/>
    <line x1="240" y1="40" x2="240" y2="360"/>
    <line x1="280" y1="40" x2="280" y2="360"/>
    <line x1="320" y1="40" x2="320" y2="360"/>
    <!-- Junction dots -->
    <circle cx="80" cy="80" r="2.5" fill="#05d8c0" stroke="none"/>
    <circle cx="120" cy="80" r="2.5" fill="#05d8c0" stroke="none"/>
    <circle cx="160" cy="80" r="2.5" fill="#05d8c0" stroke="none"/>
    <circle cx="200" cy="80" r="2.5" fill="#05d8c0" stroke="none"/>
    <circle cx="240" cy="80" r="2.5" fill="#05d8c0" stroke="none"/>
    <circle cx="280" cy="80" r="2.5" fill="#05d8c0" stroke="none"/>
    <circle cx="320" cy="80" r="2.5" fill="#05d8c0" stroke="none"/>
    <circle cx="80" cy="120" r="2.5" fill="#05d8c0" stroke="none"/>
    <circle cx="120" cy="120" r="2.5" fill="#05d8c0" stroke="none"/>
    <circle cx="160" cy="120" r="2.5" fill="#05d8c0" stroke="none"/>
    <circle cx="240" cy="120" r="2.5" fill="#05d8c0" stroke="none"/>
    <circle cx="280" cy="120" r="2.5" fill="#05d8c0" stroke="none"/>
    <circle cx="320" cy="120" r="2.5" fill="#05d8c0" stroke="none"/>
    <circle cx="80" cy="160" r="2.5" fill="#05d8c0" stroke="none"/>
    <circle cx="120" cy="160" r="2.5" fill="#05d8c0" stroke="none"/>
    <circle cx="280" cy="160" r="2.5" fill="#05d8c0" stroke="none"/>
    <circle cx="320" cy="160" r="2.5" fill="#05d8c0" stroke="none"/>
    <circle cx="80" cy="200" r="2.5" fill="#05d8c0" stroke="none"/>
    <circle cx="320" cy="200" r="2.5" fill="#05d8c0" stroke="none"/>
    <circle cx="80" cy="240" r="2.5" fill="#05d8c0" stroke="none"/>
    <circle cx="320" cy="240" r="2.5" fill="#05d8c0" stroke="none"/>
    <circle cx="80" cy="280" r="2.5" fill="#05d8c0" stroke="none"/>
    <circle cx="120" cy="280" r="2.5" fill="#05d8c0" stroke="none"/>
    <circle cx="160" cy="280" r="2.5" fill="#05d8c0" stroke="none"/>
    <circle cx="200" cy="280" r="2.5" fill="#05d8c0" stroke="none"/>
    <circle cx="240" cy="280" r="2.5" fill="#05d8c0" stroke="none"/>
    <circle cx="280" cy="280" r="2.5" fill="#05d8c0" stroke="none"/>
    <circle cx="320" cy="280" r="2.5" fill="#05d8c0" stroke="none"/>
  </g>

  <!-- Outer gold ring (main border) -->
  <circle cx="200" cy="200" r="191" fill="none" stroke="url(#goldG)" stroke-width="5.5"/>
  <!-- Inner icon ring -->
  <circle cx="200" cy="200" r="148" fill="none" stroke="url(#goldG)" stroke-width="1.2" opacity="0.38"/>

  <!-- Radial spokes from center to each icon -->
  <g stroke="url(#goldG)" stroke-width="0.9" opacity="0.28" fill="none">
    <line x1="200" y1="200" x2="200" y2="72"/>
    <line x1="200" y1="200" x2="311" y2="136"/>
    <line x1="200" y1="200" x2="311" y2="264"/>
    <line x1="200" y1="200" x2="264" y2="311"/>
    <line x1="200" y1="200" x2="136" y2="311"/>
    <line x1="200" y1="200" x2="72" y2="200"/>
    <line x1="200" y1="200" x2="136" y2="89"/>
  </g>

  <!-- ICON: Shirt (top, 270°) at (200, 72) -->
  <circle cx="200" cy="72" r="20" fill="#080f22" stroke="url(#goldG)" stroke-width="1.5"/>
  <g transform="translate(200,72)" fill="none" stroke="#c9a84c" stroke-width="1.7" stroke-linejoin="round" stroke-linecap="round">
    <path d="M-9,2 C-7,-4 7,-4 9,2"/>
    <polyline points="-9,2 -9,12 9,12 9,2"/>
    <polyline points="-9,2 -15,-2 -13,6 -9,5"/>
    <polyline points="9,2 15,-2 13,6 9,5"/>
  </g>

  <!-- ICON: Music note (upper-right, 330°) at (311, 136) -->
  <circle cx="311" cy="136" r="20" fill="#080f22" stroke="url(#goldG)" stroke-width="1.5"/>
  <g transform="translate(311,136)" fill="#c9a84c" stroke="none">
    <ellipse cx="1" cy="8" rx="5" ry="3.5" transform="rotate(-20 1 8)"/>
    <rect x="4.5" y="-9" width="2" height="16" rx="1"/>
    <path d="M6.5,-9 C13,-7 13,0 6.5,3" fill="none" stroke="#c9a84c" stroke-width="2"/>
  </g>

  <!-- ICON: Film clapperboard (right, 30°) at (311, 264) -->
  <circle cx="311" cy="264" r="20" fill="#080f22" stroke="url(#goldG)" stroke-width="1.5"/>
  <g transform="translate(311,264)" fill="none" stroke="#c9a84c" stroke-width="1.5" stroke-linejoin="round">
    <rect x="-11" y="-1" width="22" height="14" rx="1.5"/>
    <rect x="-11" y="-10" width="22" height="10" rx="1.5"/>
    <line x1="-5" y1="-10" x2="-8" y2="-1" stroke-width="2.5" stroke="#c9a84c"/>
    <line x1="1" y1="-10" x2="-2" y2="-1" stroke-width="2.5" stroke="#c9a84c"/>
    <line x1="7" y1="-10" x2="4" y2="-1" stroke-width="2.5" stroke="#c9a84c"/>
    <line x1="-11" y1="-5" x2="11" y2="-5" stroke-width="0.8"/>
  </g>

  <!-- ICON: Star (lower-right, 60°) at (264, 311) -->
  <circle cx="264" cy="311" r="20" fill="#080f22" stroke="url(#goldG)" stroke-width="1.5"/>
  <polygon points="264,299 267,308 276,308 269,313 272,322 264,317 256,322 259,313 252,308 261,308" fill="#c9a84c"/>

  <!-- ICON: Food bowl (lower-left, 120°) at (136, 311) -->
  <circle cx="136" cy="311" r="20" fill="#080f22" stroke="url(#goldG)" stroke-width="1.5"/>
  <g transform="translate(136,311)" fill="none" stroke="#c9a84c" stroke-width="1.7" stroke-linecap="round">
    <line x1="-13" y1="1" x2="13" y2="1"/>
    <path d="M-12,1 A12,10 0 0 0 12,1"/>
    <path d="M-5,-8 C-5,-3 5,-3 5,-8" stroke-width="1.4"/>
    <path d="M-1,-8 C-1,-3 0,-1 0,1" stroke-width="1.4"/>
  </g>

  <!-- ICON: Football (left, 180°) at (72, 200) -->
  <circle cx="72" cy="200" r="20" fill="#080f22" stroke="url(#goldG)" stroke-width="1.5"/>
  <circle cx="72" cy="200" r="12" fill="none" stroke="#c9a84c" stroke-width="1.4"/>
  <polygon points="72,193 75.5,196 74,200.5 70,200.5 68.5,196" fill="none" stroke="#c9a84c" stroke-width="1.4"/>
  <line x1="72" y1="188" x2="72" y2="193" stroke="#c9a84c" stroke-width="1.2"/>
  <line x1="83" y1="197" x2="75.5" y2="196" stroke="#c9a84c" stroke-width="1.2"/>
  <line x1="79" y1="210" x2="74" y2="200.5" stroke="#c9a84c" stroke-width="1.2"/>
  <line x1="65" y1="210" x2="70" y2="200.5" stroke="#c9a84c" stroke-width="1.2"/>
  <line x1="61" y1="197" x2="68.5" y2="196" stroke="#c9a84c" stroke-width="1.2"/>

  <!-- ICON: TV monitor (upper-left, 240°) at (136, 89) -->
  <circle cx="136" cy="89" r="20" fill="#080f22" stroke="url(#goldG)" stroke-width="1.5"/>
  <g transform="translate(136,89)" fill="none" stroke="#c9a84c" stroke-width="1.5" stroke-linejoin="round" stroke-linecap="round">
    <rect x="-12" y="-10" width="24" height="17" rx="2"/>
    <line x1="-5" y1="7" x2="-5" y2="11"/>
    <line x1="5" y1="7" x2="5" y2="11"/>
    <line x1="-7" y1="11" x2="7" y2="11"/>
  </g>

  <!-- CV LETTERS (main logo mark) -->
  <text x="201" y="205"
    text-anchor="middle"
    font-family="'Georgia', 'Times New Roman', serif"
    font-size="112" font-weight="900" font-style="italic"
    fill="url(#cvG)"
    letter-spacing="-5">CV</text>

  <!-- LA CENTRAL VIP -->
  <text x="200" y="262"
    text-anchor="middle"
    font-family="'Arial Black', 'Arial', sans-serif"
    font-size="22" font-weight="900"
    fill="url(#goldG)"
    letter-spacing="3.5">LA CENTRAL VIP</text>

  <!-- Thin gold line divider -->
  <line x1="84" y1="272" x2="316" y2="272" stroke="url(#goldG)" stroke-width="0.9" opacity="0.5"/>

  <!-- SERVICIOS PREMIUM AL MEJOR PRECIO -->
  <text x="200" y="288"
    text-anchor="middle"
    font-family="'Arial', sans-serif"
    font-size="9" font-weight="500"
    fill="url(#goldG)"
    letter-spacing="3.8">SERVICIOS PREMIUM AL MEJOR PRECIO</text>

  <!-- INFO: @pepe1312x pill -->
  <rect x="114" y="337" width="172" height="27" rx="13.5" fill="none" stroke="url(#goldG)" stroke-width="1.5"/>
  <text x="200" y="355"
    text-anchor="middle"
    font-family="'Arial', sans-serif"
    font-size="11" font-weight="600"
    fill="url(#goldG)"
    letter-spacing="1.5">INFO: @pepe1312x</text>

  <!-- Bottom-right diamond decoration -->
  <path d="M 384,383 L 391,389 L 384,395 L 377,389 Z" fill="url(#goldG)" opacity="0.75"/>
</svg>
